<?xml version="1.0" encoding="UTF-8"?>
<svg id="Layer_2" data-name="Layer 2" xmlns="http://www.w3.org/2000/svg" viewBox="0 0 581.27 123.82">
  <defs>
    <style>
      .cls-1 {
        font-family: Arial-BoldMT, Arial;
        font-size: 12.21px;
        font-weight: 700;
      }

      .cls-1, .cls-2, .cls-3 {
        fill: #45b864;
      }

      .cls-4 {
        stroke: #45b864;
        stroke-miterlimit: 10;
        stroke-width: 5px;
      }

      .cls-4, .cls-5 {
        fill: none;
      }

      .cls-3 {
        opacity: .1;
      }
    </style>
  </defs>
  <g id="Layer_1-2" data-name="Layer 1">
    <g>
      <g>
        <circle class="cls-3" cx="134.92" cy="47.08" r="27.82"/>
        <circle class="cls-3" cx="241.9" cy="47.08" r="27.82"/>
        <circle class="cls-3" cx="348.88" cy="47.08" r="27.82"/>
        <circle class="cls-3" cx="455.86" cy="47.08" r="27.82"/>
        <circle class="cls-4" cx="134.92" cy="47.08" r="27.82"/>
        <g>
          <path class="cls-2" d="m121,52.88v-1.93h2.96v-7.46l-2.57,1.42-.71-1.77,3.68-1.94h1.82v9.75h2.55v1.93h-7.72Z"/>
          <path class="cls-2" d="m139.17,47.03c0,.95-.1,1.8-.31,2.56-.21.75-.51,1.39-.91,1.9-.4.52-.89.91-1.46,1.18-.57.27-1.23.41-1.97.41-.64,0-1.23-.11-1.77-.34-.54-.22-1-.58-1.39-1.06-.39-.48-.7-1.1-.91-1.85s-.33-1.65-.33-2.7c0-.95.11-1.8.32-2.56.21-.75.51-1.39.91-1.9s.88-.91,1.46-1.18,1.24-.41,1.97-.41c.64,0,1.23.11,1.77.34.54.22,1,.58,1.39,1.06.39.48.69,1.09.91,1.85s.33,1.65.33,2.71Zm-6.87.04v.33c0,.1,0,.21.02.31l4.35-3.14c-.21-.59-.48-1.02-.82-1.3-.34-.28-.74-.42-1.2-.42-.33,0-.64.08-.92.25s-.53.43-.74.78c-.21.35-.38.79-.5,1.31-.12.53-.18,1.15-.18,1.87Zm4.69.04c0-.1,0-.2,0-.31,0-.1,0-.2,0-.3l-4.32,3.12c.19.57.46,1,.8,1.28.34.28.74.42,1.2.42.33,0,.64-.09.93-.26s.54-.43.75-.78c.21-.35.37-.78.49-1.31.12-.53.18-1.15.18-1.87Z"/>
          <path class="cls-2" d="m149.16,47.03c0,.95-.1,1.8-.31,2.56-.21.75-.51,1.39-.91,1.9-.4.52-.89.91-1.46,1.18-.57.27-1.23.41-1.97.41-.64,0-1.23-.11-1.77-.34-.54-.22-1-.58-1.39-1.06-.39-.48-.7-1.1-.91-1.85s-.33-1.65-.33-2.7c0-.95.11-1.8.32-2.56.21-.75.51-1.39.91-1.9s.88-.91,1.46-1.18,1.24-.41,1.97-.41c.64,0,1.23.11,1.77.34.54.22,1,.58,1.39,1.06.39.48.69,1.09.91,1.85s.33,1.65.33,2.71Zm-6.87.04v.33c0,.1,0,.21.02.31l4.35-3.14c-.21-.59-.48-1.02-.82-1.3-.34-.28-.74-.42-1.2-.42-.33,0-.64.08-.92.25s-.53.43-.74.78c-.21.35-.38.79-.5,1.31-.12.53-.18,1.15-.18,1.87Zm4.69.04c0-.1,0-.2,0-.31,0-.1,0-.2,0-.3l-4.32,3.12c.19.57.46,1,.8,1.28.34.28.74.42,1.2.42.33,0,.64-.09.93-.26s.54-.43.75-.78c.21-.35.37-.78.49-1.31.12-.53.18-1.15.18-1.87Z"/>
        </g>
        <text class="cls-1" transform="translate(97.59 99.96)"><tspan x="0" y="0">Performance</tspan></text>
        <circle class="cls-4" cx="241.9" cy="47.08" r="27.82"/>
        <g>
          <path class="cls-2" d="m227.98,52.88v-1.93h2.96v-7.46l-2.57,1.42-.71-1.77,3.68-1.94h1.82v9.75h2.55v1.93h-7.72Z"/>
          <path class="cls-2" d="m246.15,47.03c0,.95-.1,1.8-.31,2.56-.21.75-.51,1.39-.91,1.9-.4.52-.89.91-1.46,1.18-.57.27-1.23.41-1.97.41-.64,0-1.23-.11-1.77-.34-.54-.22-1-.58-1.39-1.06-.39-.48-.7-1.1-.91-1.85s-.33-1.65-.33-2.7c0-.95.11-1.8.32-2.56.21-.75.51-1.39.91-1.9s.88-.91,1.46-1.18,1.24-.41,1.97-.41c.64,0,1.23.11,1.77.34.54.22,1,.58,1.39,1.06.39.48.69,1.09.91,1.85s.33,1.65.33,2.71Zm-6.87.04v.33c0,.1,0,.21.02.31l4.35-3.14c-.21-.59-.48-1.02-.82-1.3-.34-.28-.74-.42-1.2-.42-.33,0-.64.08-.92.25s-.53.43-.74.78c-.21.35-.38.79-.5,1.31-.12.53-.18,1.15-.18,1.87Zm4.69.04c0-.1,0-.2,0-.31,0-.1,0-.2,0-.3l-4.32,3.12c.19.57.46,1,.8,1.28.34.28.74.42,1.2.42.33,0,.64-.09.93-.26s.54-.43.75-.78c.21-.35.37-.78.49-1.31.12-.53.18-1.15.18-1.87Z"/>
          <path class="cls-2" d="m256.14,47.03c0,.95-.1,1.8-.31,2.56-.21.75-.51,1.39-.91,1.9-.4.52-.89.91-1.46,1.18-.57.27-1.23.41-1.97.41-.64,0-1.23-.11-1.77-.34-.54-.22-1-.58-1.39-1.06-.39-.48-.7-1.1-.91-1.85s-.33-1.65-.33-2.7c0-.95.11-1.8.32-2.56.21-.75.51-1.39.91-1.9s.88-.91,1.46-1.18,1.24-.41,1.97-.41c.64,0,1.23.11,1.77.34.54.22,1,.58,1.39,1.06.39.48.69,1.09.91,1.85s.33,1.65.33,2.71Zm-6.87.04v.33c0,.1,0,.21.02.31l4.35-3.14c-.21-.59-.48-1.02-.82-1.3-.34-.28-.74-.42-1.2-.42-.33,0-.64.08-.92.25s-.53.43-.74.78c-.21.35-.38.79-.5,1.31-.12.53-.18,1.15-.18,1.87Zm4.69.04c0-.1,0-.2,0-.31,0-.1,0-.2,0-.3l-4.32,3.12c.19.57.46,1,.8,1.28.34.28.74.42,1.2.42.33,0,.64-.09.93-.26s.54-.43.75-.78c.21-.35.37-.78.49-1.31.12-.53.18-1.15.18-1.87Z"/>
        </g>
        <text class="cls-1" transform="translate(204.57 99.96)"><tspan x="0" y="0">Accessibility</tspan></text>
        <circle class="cls-4" cx="348.88" cy="47.08" r="27.82"/>
        <g>
          <path class="cls-2" d="m334.96,52.88v-1.93h2.96v-7.46l-2.57,1.42-.71-1.77,3.68-1.94h1.82v9.75h2.55v1.93h-7.72Z"/>
          <path class="cls-2" d="m353.13,47.03c0,.95-.1,1.8-.31,2.56-.21.75-.51,1.39-.91,1.9-.4.52-.89.91-1.46,1.18-.57.27-1.23.41-1.97.41-.64,0-1.23-.11-1.77-.34-.54-.22-1-.58-1.39-1.06-.39-.48-.7-1.1-.91-1.85s-.33-1.65-.33-2.7c0-.95.11-1.8.32-2.56.21-.75.51-1.39.91-1.9s.88-.91,1.46-1.18,1.24-.41,1.97-.41c.64,0,1.23.11,1.77.34.54.22,1,.58,1.39,1.06.39.48.69,1.09.91,1.85s.33,1.65.33,2.71Zm-6.87.04v.33c0,.1,0,.21.02.31l4.35-3.14c-.21-.59-.48-1.02-.82-1.3-.34-.28-.74-.42-1.2-.42-.33,0-.64.08-.92.25s-.53.43-.74.78c-.21.35-.38.79-.5,1.31-.12.53-.18,1.15-.18,1.87Zm4.69.04c0-.1,0-.2,0-.31,0-.1,0-.2,0-.3l-4.32,3.12c.19.57.46,1,.8,1.28.34.28.74.42,1.2.42.33,0,.64-.09.93-.26s.54-.43.75-.78c.21-.35.37-.78.49-1.31.12-.53.18-1.15.18-1.87Z"/>
          <path class="cls-2" d="m363.12,47.03c0,.95-.1,1.8-.31,2.56-.21.75-.51,1.39-.91,1.9-.4.52-.89.91-1.46,1.18-.57.27-1.23.41-1.97.41-.64,0-1.23-.11-1.77-.34-.54-.22-1-.58-1.39-1.06-.39-.48-.7-1.1-.91-1.85s-.33-1.65-.33-2.7c0-.95.11-1.8.32-2.56.21-.75.51-1.39.91-1.9s.88-.91,1.46-1.18,1.24-.41,1.97-.41c.64,0,1.23.11,1.77.34.54.22,1,.58,1.39,1.06.39.48.69,1.09.91,1.85s.33,1.65.33,2.71Zm-6.87.04v.33c0,.1,0,.21.02.31l4.35-3.14c-.21-.59-.48-1.02-.82-1.3-.34-.28-.74-.42-1.2-.42-.33,0-.64.08-.92.25s-.53.43-.74.78c-.21.35-.38.79-.5,1.31-.12.53-.18,1.15-.18,1.87Zm4.69.04c0-.1,0-.2,0-.31,0-.1,0-.2,0-.3l-4.32,3.12c.19.57.46,1,.8,1.28.34.28.74.42,1.2.42.33,0,.64-.09.93-.26s.54-.43.75-.78c.21-.35.37-.78.49-1.31.12-.53.18-1.15.18-1.87Z"/>
        </g>
        <text class="cls-1" transform="translate(306.8 99.96)"><tspan x="0" y="0">Best Practices</tspan></text>
        <circle class="cls-4" cx="455.86" cy="47.08" r="27.82"/>
        <g>
          <path class="cls-2" d="m441.94,52.88v-1.93h2.96v-7.46l-2.57,1.42-.71-1.77,3.68-1.94h1.82v9.75h2.55v1.93h-7.72Z"/>
          <path class="cls-2" d="m460.11,47.03c0,.95-.1,1.8-.31,2.56-.21.75-.51,1.39-.91,1.9-.4.52-.89.91-1.46,1.18-.57.27-1.23.41-1.97.41-.64,0-1.23-.11-1.77-.34-.54-.22-1-.58-1.39-1.06-.39-.48-.7-1.1-.91-1.85s-.33-1.65-.33-2.7c0-.95.11-1.8.32-2.56.21-.75.51-1.39.91-1.9s.88-.91,1.46-1.18,1.24-.41,1.97-.41c.64,0,1.23.11,1.77.34.54.22,1,.58,1.39,1.06.39.48.69,1.09.91,1.85s.33,1.65.33,2.71Zm-6.87.04v.33c0,.1,0,.21.02.31l4.35-3.14c-.21-.59-.48-1.02-.82-1.3-.34-.28-.74-.42-1.2-.42-.33,0-.64.08-.92.25s-.53.43-.74.78c-.21.35-.38.79-.5,1.31-.12.53-.18,1.15-.18,1.87Zm4.69.04c0-.1,0-.2,0-.31,0-.1,0-.2,0-.3l-4.32,3.12c.19.57.46,1,.8,1.28.34.28.74.42,1.2.42.33,0,.64-.09.93-.26s.54-.43.75-.78c.21-.35.37-.78.49-1.31.12-.53.18-1.15.18-1.87Z"/>
          <path class="cls-2" d="m470.1,47.03c0,.95-.1,1.8-.31,2.56-.21.75-.51,1.39-.91,1.9-.4.52-.89.91-1.46,1.18-.57.27-1.23.41-1.97.41-.64,0-1.23-.11-1.77-.34-.54-.22-1-.58-1.39-1.06-.39-.48-.7-1.1-.91-1.85s-.33-1.65-.33-2.7c0-.95.11-1.8.32-2.56.21-.75.51-1.39.91-1.9s.88-.91,1.46-1.18,1.24-.41,1.97-.41c.64,0,1.23.11,1.77.34.54.22,1,.58,1.39,1.06.39.48.69,1.09.91,1.85s.33,1.65.33,2.71Zm-6.87.04v.33c0,.1,0,.21.02.31l4.35-3.14c-.21-.59-.48-1.02-.82-1.3-.34-.28-.74-.42-1.2-.42-.33,0-.64.08-.92.25s-.53.43-.74.78c-.21.35-.38.79-.5,1.31-.12.53-.18,1.15-.18,1.87Zm4.69.04c0-.1,0-.2,0-.31,0-.1,0-.2,0-.3l-4.32,3.12c.19.57.46,1,.8,1.28.34.28.74.42,1.2.42.33,0,.64-.09.93-.26s.54-.43.75-.78c.21-.35.37-.78.49-1.31.12-.53.18-1.15.18-1.87Z"/>
        </g>
        <text class="cls-1" transform="translate(442.97 99.96)"><tspan x="0" y="0">SEO</tspan></text>
      </g>
      <rect class="cls-5" width="581.27" height="123.82"/>
    </g>
  </g>
</svg>